# xmcd
#
# Track frame offsets:
#	150
#	15480
#	50935
#	92582
#	133557
#	145477
#	184530
#	219985
#
# Disc length: 3208 seconds
#
# Revision: 0
# Processed by: cddbd v1.5.1PL2 Copyright (c) Steve Scherf et al.
# Submitted via: dBpowerAMP V4.0
#
DISCID=6d0c8608
DTITLE=Big Walter Horton - Walter Shakey Horton
DYEAR=1900
DGENRE=blues
TTITLE0=Union Shuffle (Part 1)
TTITLE1=Come On Little Girl
TTITLE2=All Because Of You
TTITLE3=Mean Mistreater
TTITLE4=Union Shuffle (Part 2)
TTITLE5=Little Boy Blue
TTITLE6=Shake Your Money Maker
TTITLE7=Don't Get Around Much Anymore
EXTD=
EXTT0=
EXTT1=
EXTT2=
EXTT3=
EXTT4=
EXTT5=
EXTT6=
EXTT7=
PLAYORDER=
